<?xml version="1.0" encoding="UTF-8" standalone="no"?>
<svg
   xmlns:dc="http://purl.org/dc/elements/1.1/"
   xmlns:cc="http://creativecommons.org/ns#"
   xmlns:rdf="http://www.w3.org/1999/02/22-rdf-syntax-ns#"
   xmlns:svg="http://www.w3.org/2000/svg"
   xmlns="http://www.w3.org/2000/svg"
   xmlns:sodipodi="http://sodipodi.sourceforge.net/DTD/sodipodi-0.dtd"
   xmlns:inkscape="http://www.inkscape.org/namespaces/inkscape"
   inkscape:export-ydpi="96"
   inkscape:export-xdpi="96"
   inkscape:export-filename="/home/pedropires/desktop/goofyy/projects/goofyy.com/src/assets/img/concept-pensee-plate/concept.png"
   inkscape:version="1.0 (1.0+r73+1)"
   sodipodi:docname="concept.png.svg"
   viewBox="0 0 720 699.19837"
   height="699.19836"
   width="720"
   xml:space="preserve"
   id="svg2"
   version="1.1"><metadata
     id="metadata8"><rdf:RDF><cc:Work
         rdf:about=""><dc:format>image/svg+xml</dc:format><dc:type
           rdf:resource="http://purl.org/dc/dcmitype/StillImage" /><dc:title></dc:title></cc:Work></rdf:RDF></metadata><defs
     id="defs6"><clipPath
       id="clipPath146"
       clipPathUnits="userSpaceOnUse"><path
         id="path144"
         d="m 1280.45,1890.7 -34.54,62.75 v 0 l 34.54,-62.75 v 0 m 128.2,71.15 -34.3,62.31 v -0.01 l 34.3,-62.3" /></clipPath><clipPath
       clipPathUnits="userSpaceOnUse"
       id="clipPath146-3"><path
         d="m 1280.45,1890.7 -34.54,62.75 v 0 l 34.54,-62.75 v 0 m 128.2,71.15 -34.3,62.31 v -0.01 l 34.3,-62.3"
         id="path144-6" /></clipPath></defs><sodipodi:namedview
     inkscape:lockguides="false"
     inkscape:snap-page="false"
     inkscape:snap-to-guides="true"
     inkscape:snap-grids="true"
     inkscape:current-layer="g12"
     inkscape:window-maximized="1"
     inkscape:window-y="27"
     inkscape:window-x="0"
     inkscape:cy="333.33337"
     inkscape:cx="333.33334"
     inkscape:zoom="0.7318555"
     showgrid="false"
     id="namedview4"
     inkscape:window-height="836"
     inkscape:window-width="1600"
     inkscape:pageshadow="2"
     inkscape:pageopacity="0"
     guidetolerance="10"
     gridtolerance="10"
     objecttolerance="10"
     borderopacity="1"
     bordercolor="#666666"
     pagecolor="#ffffff" /><g
     sodipodi:insensitive="true"
     style="display:none"
     inkscape:label="background"
     id="layer2"
     inkscape:groupmode="layer"><rect
       y="0"
       x="0"
       height="699.198"
       width="720"
       id="rect740"
       style="fill:#086fa1;fill-opacity:1;stroke-width:2.85052;stroke-linecap:round;paint-order:fill markers stroke" /></g><g
     style="display:inline;opacity:1;mix-blend-mode:normal"
     transform="matrix(1.3333333,0,0,-1.3333333,-2.6333125e-6,666.6667)"
     inkscape:label="ink_ext_XXXXXX"
     inkscape:groupmode="layer"
     id="g10"><g
       style="display:inline;mix-blend-mode:normal"
       id="g12"
       transform="matrix(0.14361707,0,0,0.14361707,-71.402251,-154.27912)"><path
         d="m 2686.93,4335.58 c 5.27,0 10.42,2.13 14.15,5.86 3.72,3.72 5.85,8.87 5.85,14.14 0,5.27 -2.13,10.42 -5.85,14.14 -3.73,3.73 -8.88,5.86 -14.15,5.86 -5.26,0 -10.41,-2.13 -14.14,-5.86 -3.72,-3.72 -5.86,-8.87 -5.86,-14.14 0,-5.27 2.14,-10.42 5.86,-14.14 3.73,-3.73 8.88,-5.86 14.14,-5.86"
         style="fill:#35abe6;fill-opacity:1;fill-rule:nonzero;stroke:none"
         id="path16" /><path
         d="m 2797.77,4307.27 v 0 c 10.6,-3.08 21.7,3.02 24.78,13.63 3.08,10.6 -3.02,21.7 -13.63,24.78 v 0 c -10.61,3.08 -21.7,-3.02 -24.78,-13.63 -3.08,-10.61 3.02,-21.7 13.63,-24.78 z m 113.26,-36.61 v 0 c 10.41,-3.7 21.84,1.74 25.54,12.15 3.7,10.4 -1.74,21.84 -12.15,25.54 v 0 c -10.4,3.7 -21.84,-1.74 -25.54,-12.15 -3.7,-10.41 1.74,-21.84 12.15,-25.54 z m 111.04,-42.96 v 0 c 10.18,-4.27 21.9,0.52 26.17,10.71 4.27,10.19 -0.53,21.91 -10.71,26.18 v 0 c -10.19,4.27 -21.91,-0.53 -26.18,-10.72 -4.27,-10.19 0.53,-21.91 10.72,-26.17 z m 108.45,-49.03 v 0 c 9.94,-4.83 21.91,-0.69 26.74,9.24 4.82,9.94 0.69,21.91 -9.25,26.73 v 0 c -9.93,4.84 -21.9,0.7 -26.73,-9.24 -4.83,-9.93 -0.69,-21.9 9.24,-26.73 z m 105.46,-55.04 v 0 c 9.64,-5.4 21.83,-1.96 27.22,7.68 5.4,9.64 1.95,21.83 -7.69,27.22 v 0 c -9.64,5.4 -21.82,1.95 -27.22,-7.69 -5.39,-9.64 -1.95,-21.82 7.69,-27.21 z m 101.97,-61.14 v 0 c 9.3,-5.97 21.67,-3.27 27.63,6.03 5.97,9.3 3.27,21.67 -6.03,27.64 v 0 c -9.29,5.96 -21.66,3.26 -27.63,-6.03 -5.97,-9.3 -3.27,-21.67 6.03,-27.64 z m 97.9,-67.3 v 0 c 8.9,-6.55 21.42,-4.65 27.96,4.25 6.55,8.9 4.65,21.42 -4.25,27.96 v 0 c -8.89,6.55 -21.41,4.65 -27.96,-4.25 -6.55,-8.89 -4.64,-21.41 4.25,-27.96 z m 93.2,-73.53 v 0 c 8.43,-7.14 21.05,-6.09 28.18,2.35 7.14,8.43 6.08,21.05 -2.35,28.18 v 0 c -8.43,7.14 -21.05,6.09 -28.19,-2.35 -7.13,-8.43 -6.08,-21.05 2.36,-28.18 z m 87.79,-79.77 v 0 c 7.9,-7.72 20.56,-7.57 28.28,0.33 7.72,7.91 7.57,20.57 -0.33,28.29 -7.91,7.71 -20.57,7.56 -28.29,-0.34 -7.71,-7.9 -7.56,-20.56 0.34,-28.28 z m 81.66,-85.91 v 0 c 7.31,-8.28 19.94,-9.08 28.23,-1.78 8.29,7.3 9.09,19.94 1.78,28.23 -7.3,8.29 -19.94,9.08 -28.23,1.78 -8.28,-7.3 -9.08,-19.94 -1.78,-28.23 z m 74.82,-91.83 v 0 c 6.64,-8.83 19.18,-10.6 28.01,-3.97 8.83,6.64 10.61,19.18 3.97,28.01 -6.64,8.83 -19.18,10.6 -28.01,3.97 -8.83,-6.64 -10.6,-19.18 -3.97,-28.01 z m 67.32,-97.39 v 0 c 5.92,-9.33 18.27,-12.1 27.6,-6.18 9.33,5.91 12.1,18.26 6.19,27.59 v 0 c -5.91,9.34 -18.27,12.11 -27.6,6.19 -9.33,-5.91 -12.1,-18.27 -6.19,-27.6 z m 59.28,-102.44 v 0 c 5.14,-9.78 17.23,-13.53 27.01,-8.39 9.77,5.14 13.53,17.23 8.39,27.01 v 0 c -5.14,9.77 -17.24,13.53 -27.01,8.39 -9.78,-5.14 -13.53,-17.24 -8.39,-27.01 z m 50.83,-106.88 v 0 c 4.34,-10.15 16.09,-14.87 26.25,-10.53 10.16,4.34 14.87,16.1 10.53,26.25 v 0 c -4.34,10.16 -16.09,14.87 -26.25,10.53 -10.16,-4.34 -14.87,-16.09 -10.53,-26.25 z m 42.19,-110.6 v 0 c 3.52,-10.47 14.86,-16.11 25.33,-12.59 10.47,3.51 16.11,14.85 12.59,25.32 v 0 c -3.51,10.47 -14.85,16.11 -25.32,12.59 -10.47,-3.51 -16.11,-14.85 -12.6,-25.32 z m 28.96,-113.21 v 0 c 1.87,-10.89 12.2,-18.2 23.09,-16.34 10.89,1.87 18.2,12.2 16.34,23.09 v 0 c -1.87,10.89 -12.21,18.2 -23.09,16.34 -10.89,-1.87 -18.2,-12.21 -16.34,-23.09 z m 8.59,-115.56 v 0 c -0.32,-11.04 8.37,-20.25 19.41,-20.57 11.04,-0.32 20.25,8.37 20.57,19.41 v 0 c 0.32,11.04 -8.37,20.25 -19.41,20.57 -11.04,0.32 -20.25,-8.37 -20.57,-19.41 z m -16.56,-113.67 v 0 c -2.9,-10.66 3.4,-21.65 14.06,-24.54 10.66,-2.89 21.65,3.4 24.54,14.06 v 0 c 2.89,10.66 -3.4,21.65 -14.06,24.54 -10.66,2.89 -21.65,-3.4 -24.54,-14.06 z m -43.43,-106.21 v 0 c -5.38,-9.65 -1.93,-21.83 7.72,-27.22 9.64,-5.38 21.82,-1.93 27.21,7.72 v 0 c 5.38,9.64 1.93,21.83 -7.72,27.21 -9.64,5.38 -21.82,1.93 -27.21,-7.71 z m -67.17,-93.88 v 0 c -7.34,-8.26 -6.59,-20.9 1.67,-28.23 8.26,-7.34 20.9,-6.59 28.23,1.67 v 0 c 7.34,8.26 6.59,20.9 -1.67,28.23 -8.26,7.34 -20.9,6.59 -28.23,-1.67 z m -84.93,-79.64 v 0 c -8.67,-6.86 -10.13,-19.44 -3.28,-28.1 6.85,-8.66 19.43,-10.13 28.09,-3.28 8.66,6.86 10.13,19.44 3.28,28.1 -6.85,8.66 -19.43,10.13 -28.09,3.28 z m -96.97,-66.01 v 0 c -9.52,-5.6 -12.7,-17.86 -7.1,-27.38 5.6,-9.52 17.86,-12.7 27.38,-7.1 v 0 c 9.52,5.6 12.7,17.86 7.1,27.38 -5.6,9.52 -17.86,12.7 -27.38,7.1 z m -104.88,-53.88 v 0 c -10.08,-4.51 -14.59,-16.34 -10.08,-26.42 4.52,-10.08 16.35,-14.6 26.43,-10.08 10.08,4.51 14.59,16.34 10.08,26.42 -4.51,10.08 -16.35,14.6 -26.43,10.08 z m -110.17,-43.03 v 0 c -10.47,-3.53 -16.09,-14.87 -12.56,-25.34 3.52,-10.47 14.87,-16.09 25.34,-12.56 v 0 c 10.46,3.53 16.09,14.87 12.56,25.34 -3.53,10.47 -14.87,16.09 -25.34,12.56"
         style="fill:#35abe6;fill-opacity:1;fill-rule:nonzero;stroke:none"
         id="path18" /><path
         d="m 3397.03,2390.28 c 5.27,0 10.42,2.13 14.14,5.86 3.73,3.72 5.86,8.87 5.86,14.14 0,5.27 -2.13,10.42 -5.86,14.14 -3.72,3.73 -8.87,5.86 -14.14,5.86 -5.26,0 -10.42,-2.13 -14.14,-5.86 -3.72,-3.72 -5.86,-8.87 -5.86,-14.14 0,-5.27 2.14,-10.42 5.86,-14.14 3.72,-3.73 8.88,-5.86 14.14,-5.86"
         style="fill:#35abe6;fill-opacity:1;fill-rule:nonzero;stroke:none"
         id="path20" /><path
         d="m 2488.18,3749.45 v 0 c -29.45,0 -53.33,23.88 -53.33,53.33 v 130.3 c 0,29.45 23.88,53.33 53.33,53.33 v 0 c 29.46,0 53.34,-23.88 53.34,-53.33 v -130.3 c 0,-29.45 -23.88,-53.33 -53.34,-53.33"
         style="fill:#85d8f5;fill-opacity:1;fill-rule:nonzero;stroke:none"
         id="path22" /><path
         d="m 2102.08,3688.3 v 0 c -28.01,-9.1 -58.1,6.23 -67.2,34.24 l -40.27,123.92 c -9.1,28.01 6.23,58.1 34.25,67.2 v 0 c 28.01,9.1 58.1,-6.23 67.2,-34.24 l 40.26,-123.92 c 9.1,-28.01 -6.23,-58.1 -34.24,-67.2"
         style="fill:#85d8f5;fill-opacity:1;fill-rule:nonzero;stroke:none"
         id="path24" /><path
         d="m 1753.77,3510.83 v 0 c -23.83,-17.32 -57.18,-12.03 -74.49,11.8 l -76.59,105.41 c -17.31,23.83 -12.03,57.18 11.8,74.49 v 0 c 23.83,17.32 57.18,12.03 74.5,-11.8 l 76.58,-105.41 c 17.32,-23.83 12.03,-57.18 -11.8,-74.49"
         style="fill:#85d8f5;fill-opacity:1;fill-rule:nonzero;stroke:none"
         id="path26" /><path
         d="m 1477.36,3234.41 v 0 c -17.32,-23.83 -50.67,-29.11 -74.5,-11.8 l -105.41,76.58 c -23.83,17.32 -29.11,50.67 -11.8,74.5 v 0 c 17.31,23.83 50.67,29.11 74.5,11.8 l 105.41,-76.59 c 23.83,-17.31 29.11,-50.66 11.8,-74.49"
         style="fill:#85d8f5;fill-opacity:1;fill-rule:nonzero;stroke:none"
         id="path28" /><path
         d="m 1299.88,2886.1 v 0 c -9.1,-28.01 -39.19,-43.34 -67.2,-34.24 l -123.92,40.26 c -28.01,9.1 -43.34,39.19 -34.24,67.21 v 0 c 9.1,28.01 39.19,43.34 67.2,34.24 l 123.92,-40.26 c 28.02,-9.11 43.35,-39.2 34.24,-67.21"
         style="fill:#85d8f5;fill-opacity:1;fill-rule:nonzero;stroke:none"
         id="path30" /><path
         d="m 1238.73,2500 v 0 c 0,-29.46 -23.88,-53.33 -53.33,-53.33 h -130.3 c -29.45,0 -53.33,23.87 -53.33,53.33 0,29.46 23.88,53.33 53.33,53.33 h 130.3 c 29.45,0 53.33,-23.87 53.33,-53.33"
         style="fill:#85d8f5;fill-opacity:1;fill-rule:nonzero;stroke:none"
         id="path32" /><path
         d="m 1299.88,2113.9 v 0 c 9.11,-28.01 -6.22,-58.1 -34.24,-67.21 l -123.92,-40.26 c -28.01,-9.1 -58.1,6.23 -67.2,34.24 -9.1,28.02 6.23,58.11 34.24,67.21 l 123.92,40.26 c 28.01,9.1 58.1,-6.23 67.2,-34.24"
         style="fill:#85d8f5;fill-opacity:1;fill-rule:nonzero;stroke:none"
         id="path34" /><path
         d="m 1477.36,1765.59 c 17.31,-23.83 12.03,-57.18 -11.8,-74.49 l -105.41,-76.59 c -23.83,-17.31 -57.19,-12.03 -74.5,11.8 -17.31,23.83 -12.03,57.18 11.8,74.5 l 105.41,76.58 c 23.83,17.31 57.18,12.03 74.5,-11.8"
         style="fill:#85d8f5;fill-opacity:1;fill-rule:nonzero;stroke:none"
         id="path36" /><path
         d="m 1753.77,1489.17 v 0 c 23.83,-17.31 29.12,-50.66 11.8,-74.49 l -76.58,-105.41 c -17.32,-23.83 -50.67,-29.12 -74.5,-11.8 -23.83,17.31 -29.11,50.66 -11.8,74.49 l 76.59,105.41 c 17.31,23.83 50.66,29.12 74.49,11.8"
         style="fill:#85d8f5;fill-opacity:1;fill-rule:nonzero;stroke:none"
         id="path38" /><path
         d="m 2102.08,1311.7 v 0 c 28.01,-9.1 43.34,-39.19 34.24,-67.2 l -40.26,-123.92 c -9.1,-28.01 -39.19,-43.34 -67.2,-34.24 -28.02,9.1 -43.35,39.19 -34.25,67.2 l 40.27,123.92 c 9.1,28.01 39.19,43.34 67.2,34.24"
         style="fill:#85d8f5;fill-opacity:1;fill-rule:nonzero;stroke:none"
         id="path40" /><path
         d="m 2488.18,1250.55 v 0 c 29.46,0 53.34,-23.88 53.34,-53.33 v -130.3 c 0,-29.45 -23.88,-53.33 -53.34,-53.33 v 0 c -29.45,0 -53.33,23.88 -53.33,53.33 v 130.3 c 0,29.45 23.88,53.33 53.33,53.33"
         style="fill:#85d8f5;fill-opacity:1;fill-rule:nonzero;stroke:none"
         id="path42" /><path
         d="m 2874.28,1311.7 v 0 c 28.02,9.1 58.1,-6.23 67.21,-34.24 l 40.26,-123.92 c 9.1,-28.01 -6.23,-58.1 -34.24,-67.2 -28.02,-9.1 -58.1,6.23 -67.21,34.24 l -40.26,123.92 c -9.1,28.01 6.23,58.1 34.24,67.2"
         style="fill:#85d8f5;fill-opacity:1;fill-rule:nonzero;stroke:none"
         id="path44" /><path
         d="m 3222.59,1489.17 v 0 c 23.83,17.32 57.18,12.03 74.5,-11.8 l 76.58,-105.41 c 17.31,-23.83 12.03,-57.18 -11.8,-74.49 -23.83,-17.31 -57.18,-12.03 -74.49,11.8 l -76.59,105.41 c -17.31,23.83 -12.03,57.18 11.8,74.49"
         style="fill:#85d8f5;fill-opacity:1;fill-rule:nonzero;stroke:none"
         id="path46" /><path
         d="m 3499.01,1765.59 v 0 c 17.31,23.83 50.66,29.11 74.49,11.8 l 105.41,-76.58 c 23.83,-17.32 29.12,-50.67 11.8,-74.5 -17.31,-23.83 -50.66,-29.11 -74.49,-11.8 l -105.41,76.59 c -23.83,17.31 -29.12,50.66 -11.8,74.49"
         style="fill:#85d8f5;fill-opacity:1;fill-rule:nonzero;stroke:none"
         id="path48" /><path
         d="m 3676.48,2113.9 v 0 c 9.1,28.01 39.19,43.34 67.2,34.24 l 123.92,-40.26 c 28.01,-9.1 43.34,-39.19 34.24,-67.21 -9.1,-28.01 -39.19,-43.34 -67.2,-34.24 l -123.92,40.26 c -28.01,9.11 -43.34,39.2 -34.24,67.21"
         style="fill:#85d8f5;fill-opacity:1;fill-rule:nonzero;stroke:none"
         id="path50" /><path
         d="m 3737.63,2500 v 0 c 0,29.46 23.88,53.33 53.33,53.33 h 130.3 c 29.45,0 53.33,-23.87 53.33,-53.33 0,-29.46 -23.88,-53.33 -53.33,-53.33 h -130.3 c -29.45,0 -53.33,23.87 -53.33,53.33"
         style="fill:#85d8f5;fill-opacity:1;fill-rule:nonzero;stroke:none"
         id="path52" /><path
         d="m 3676.48,2886.1 v 0 c -9.1,28.01 6.23,58.1 34.24,67.21 l 123.92,40.26 c 28.01,9.1 58.1,-6.23 67.2,-34.24 v 0 c 9.1,-28.02 -6.23,-58.11 -34.24,-67.21 l -123.92,-40.26 c -28.01,-9.1 -58.1,6.23 -67.2,34.24"
         style="fill:#85d8f5;fill-opacity:1;fill-rule:nonzero;stroke:none"
         id="path54" /><path
         d="m 3499.01,3234.41 v 0 c -17.32,23.83 -12.03,57.18 11.8,74.49 l 105.41,76.59 c 23.83,17.31 57.18,12.03 74.49,-11.8 17.32,-23.83 12.03,-57.18 -11.8,-74.5 l -105.41,-76.58 c -23.83,-17.31 -57.18,-12.03 -74.49,11.8"
         style="fill:#85d8f5;fill-opacity:1;fill-rule:nonzero;stroke:none"
         id="path56" /><path
         d="m 3222.59,3510.83 v 0 c -23.83,17.31 -29.11,50.66 -11.8,74.49 l 76.59,105.41 c 17.31,23.83 50.66,29.12 74.49,11.8 23.83,-17.31 29.11,-50.66 11.8,-74.49 l -76.58,-105.41 c -17.32,-23.83 -50.67,-29.12 -74.5,-11.8"
         style="fill:#85d8f5;fill-opacity:1;fill-rule:nonzero;stroke:none"
         id="path58" /><path
         d="m 2874.28,3688.3 v 0 c -28.01,9.1 -43.34,39.19 -34.24,67.2 l 40.26,123.92 c 9.11,28.01 39.19,43.34 67.21,34.24 v 0 c 28.01,-9.1 43.34,-39.19 34.24,-67.2 l -40.26,-123.92 c -9.11,-28.01 -39.19,-43.34 -67.21,-34.24"
         style="fill:#85d8f5;fill-opacity:1;fill-rule:nonzero;stroke:none"
         id="path60" /><path
         d="m 1638.28,3496.64 c -2.85,-4.01 -6.37,-7.65 -10.52,-10.7 l -238.77,-175.9 c -20.99,-15.46 -50.83,-10.94 -66.29,10.06 -15.46,21.01 -10.93,50.83 10.07,66.3 l 238.77,175.9 c 4.19,3.1 8.74,5.37 13.45,6.9 l 0.69,-1.86 c 4.15,-13.69 10.66,-26.9 19.61,-39.06 8.68,-11.77 18.96,-21.65 30.35,-29.57 l 2.64,-2.07"
         style="fill:#3a3a3b;fill-opacity:1;fill-rule:evenodd;stroke:none"
         id="path62" /><path
         d="m 1580.23,3450.61 -56.72,-41.76 c -8.99,-6.62 -28.99,5.13 -44.45,26.12 -15.45,21.01 -20.73,43.58 -11.75,50.2 l 56.73,41.77 c 2.74,-15.71 9.04,-31.05 19.14,-44.76 10.1,-13.71 22.86,-24.29 37.05,-31.57"
         style="fill:#ffffff;fill-opacity:1;fill-rule:evenodd;stroke:none"
         id="path64" /><path
         d="m 2488.19,3452.29 h -0.02 c -433.72,0 -785.33,-351.61 -785.33,-785.34 0,-501.19 378.29,-642.5 378.29,-906.24 0,-67.36 55.14,-256.57 122.5,-256.57 h 284.55 284.55 c 67.37,0 122.5,189.21 122.5,256.57 0,263.74 378.3,405.05 378.3,906.24 0,433.73 -351.61,785.34 -785.34,785.34"
         style="fill:#fdd90b;fill-opacity:1;fill-rule:evenodd;stroke:none"
         id="path66" /><path
         d="m 2623.09,3145.93 c 149.83,-29.59 275.32,-127.61 342.47,-260.02 22.17,-43.72 76.63,-59.07 118.3,-33.26 l 1.5,0.93 c 36.05,22.3 49.66,68.72 30.61,106.58 -89.82,178.55 -258.51,310.57 -460.36,350.28 -54.43,10.7 -103.31,-34.15 -98.61,-89.43 l 0.15,-1.69 c 3.26,-36.3 30.19,-66.33 65.94,-73.39"
         style="fill:#fff25d;fill-opacity:1;fill-rule:nonzero;stroke:none"
         id="path68" /><path
         d="m 3112.18,2617.63 c -1.57,0.34 -3.13,0.67 -4.69,1.01 -45.54,9.75 -89.46,-20.51 -97.47,-66.38 -2.29,-13.1 -5.03,-25.18 -8.2,-36.41 -9.79,-34.74 4.89,-71.55 35.49,-90.71 1.23,-0.77 2.46,-1.54 3.69,-2.32 46.29,-29.05 107.11,-5.32 121.79,47.32 4.66,16.72 8.72,34.62 12.08,53.87 7.5,42.97 -20.06,84.39 -62.69,93.62"
         style="fill:#fff25d;fill-opacity:1;fill-rule:nonzero;stroke:none"
         id="path70" /><path
         d="m 2042.7,2250.2 c -1.27,-0.97 -2.54,-1.95 -3.8,-2.92 -36.91,-28.4 -42.28,-81.46 -12.5,-117.26 8.5,-10.23 15.93,-20.13 22.44,-29.81 20.15,-29.96 57.71,-42.6 92.12,-31.67 1.38,0.44 2.77,0.88 4.16,1.31 52.1,16.48 73.39,78.2 42.76,123.46 -9.72,14.38 -20.74,29.06 -33.24,44.08 -27.89,33.53 -77.31,39.33 -111.94,12.81"
         style="fill:#fff25d;fill-opacity:1;fill-rule:nonzero;stroke:none"
         id="path72" /><path
         d="m 989.348,3457.08 v 0 c 15.802,0 28.732,-12.93 28.732,-28.73 v -43.1 h 43.1 c 15.8,0 28.73,-12.93 28.73,-28.73 0,-15.81 -12.93,-28.73 -28.73,-28.73 h -43.1 v -43.1 c 0,-15.81 -12.93,-28.73 -28.732,-28.73 -15.805,0 -28.731,12.92 -28.731,28.73 v 43.1 H 917.52 c -15.805,0 -28.735,12.92 -28.735,28.73 0,15.8 12.93,28.73 28.735,28.73 h 43.097 v 43.1 c 0,15.8 12.926,28.73 28.731,28.73"
         style="fill:#fdd405;fill-opacity:1;fill-rule:evenodd;stroke:none"
         id="path74" /><path
         d="m 1903.74,1105.48 v 0 c 15.8,0 28.73,-12.93 28.73,-28.73 v -43.1 h 43.1 c 15.8,0 28.73,-12.93 28.73,-28.73 0,-15.799 -12.93,-28.74 -28.73,-28.74 h -43.1 v -43.09 c 0,-15.801 -12.93,-28.738 -28.73,-28.738 -15.8,0 -28.73,12.937 -28.73,28.738 v 43.09 h -43.1 c -15.8,0 -28.73,12.941 -28.73,28.74 0,15.8 12.93,28.73 28.73,28.73 h 43.1 v 43.1 c 0,15.8 12.93,28.73 28.73,28.73"
         style="fill:#fdd405;fill-opacity:1;fill-rule:evenodd;stroke:none"
         id="path76" /><path
         d="m 3168.17,1163.32 c 26.44,0 47.89,-21.44 47.89,-47.89 0,-26.44 -21.45,-47.88 -47.89,-47.88 -26.44,0 -47.88,21.44 -47.88,47.88 0,26.45 21.44,47.89 47.88,47.89"
         style="fill:#00a764;fill-opacity:1;fill-rule:evenodd;stroke:none"
         id="path78" /><path
         d="m 1022.86,1805 c 26.45,0 47.89,-21.44 47.89,-47.89 0,-26.44 -21.44,-47.88 -47.89,-47.88 -26.438,0 -47.88,21.44 -47.88,47.88 0,26.45 21.442,47.89 47.88,47.89"
         style="fill:#35abe6;fill-opacity:1;fill-rule:evenodd;stroke:none"
         id="path80" /><path
         d="m 2261.86,3913.25 c 37.87,0 68.58,-30.71 68.58,-68.58 0,-37.87 -30.71,-68.57 -68.58,-68.57 -37.87,0 -68.57,30.7 -68.57,68.57 0,37.87 30.7,68.58 68.57,68.58"
         style="fill:#00a764;fill-opacity:1;fill-rule:evenodd;stroke:none"
         id="path82" /><path
         d="m 4058.86,3155.39 c 26.44,0 47.88,-21.43 47.88,-47.88 0,-26.44 -21.44,-47.88 -47.88,-47.88 -26.44,0 -47.88,21.44 -47.88,47.88 0,26.45 21.44,47.88 47.88,47.88"
         style="fill:#fdd405;fill-opacity:1;fill-rule:evenodd;stroke:none"
         id="path84" /><path
         d="m 1555.94,4137.01 v 0 c 0,-9.02 -7.37,-16.4 -16.39,-16.4 h -28.12 c -9.02,0 -16.4,7.38 -16.4,16.4 0,9.02 7.38,16.4 16.4,16.4 h 28.12 c 9.02,0 16.39,-7.38 16.39,-16.4 z m 24.29,-24.29 v 0 c 9.02,0 16.4,-7.37 16.4,-16.39 v -28.12 c 0,-9.02 -7.38,-16.4 -16.4,-16.4 -9.02,0 -16.4,7.38 -16.4,16.4 v 28.12 c 0,9.02 7.38,16.39 16.4,16.39 z m 85.2,24.29 v 0 c 0,-9.02 -7.38,-16.4 -16.4,-16.4 h -28.12 c -9.02,0 -16.4,7.38 -16.4,16.4 0,9.02 7.38,16.4 16.4,16.4 h 28.12 c 9.02,0 16.4,-7.38 16.4,-16.4 z m -85.2,85.2 v 0 c 9.02,0 16.4,-7.38 16.4,-16.4 v -28.12 c 0,-9.02 -7.38,-16.4 -16.4,-16.4 -9.02,0 -16.4,7.38 -16.4,16.4 v 28.12 c 0,9.02 7.38,16.4 16.4,16.4"
         style="fill:#35abe6;fill-opacity:1;fill-rule:evenodd;stroke:none"
         id="path86" /><path
         d="m 4000.92,1286.07 v 0 c 0,-10.85 -8.87,-19.72 -19.73,-19.72 h -33.82 c -10.85,0 -19.72,8.87 -19.72,19.72 0,10.85 8.87,19.72 19.72,19.72 h 33.82 c 10.86,0 19.73,-8.87 19.73,-19.72 z m 29.21,-29.21 v 0 c 10.85,0 19.72,-8.87 19.72,-19.72 v -33.82 c 0,-10.85 -8.87,-19.73 -19.72,-19.73 -10.85,0 -19.73,8.88 -19.73,19.73 v 33.82 c 0,10.85 8.88,19.72 19.73,19.72 z m 102.48,29.21 v 0 c 0,-10.85 -8.88,-19.72 -19.73,-19.72 h -33.82 c -10.85,0 -19.72,8.87 -19.72,19.72 0,10.85 8.87,19.72 19.72,19.72 h 33.82 c 10.85,0 19.73,-8.87 19.73,-19.72 z m -102.48,102.48 v 0 c 10.85,0 19.72,-8.87 19.72,-19.72 V 1335 c 0,-10.85 -8.87,-19.72 -19.72,-19.72 -10.85,0 -19.73,8.87 -19.73,19.72 v 33.83 c 0,10.85 8.88,19.72 19.73,19.72"
         style="fill:#35abe6;fill-opacity:1;fill-rule:evenodd;stroke:none"
         id="path88" /><path
         d="m 1189.1,1928.22 c -15.19,0 -29.97,8.04 -37.77,22.22 l -5.24,9.51 c -9.11,16.55 -6.08,36.65 6.07,49.87 l 113.48,36.87 c 21.77,7.08 35.88,26.82 36.82,48.41 l 61.4,33.8 c 6.53,3.59 13.61,5.3 20.6,5.3 15.19,0 29.97,-8.04 37.78,-22.22 l 1.1,-2 4.15,-7.55 c 9.44,-17.19 5.79,-38.2 -7.55,-51.35 -0.01,-0.01 -0.01,-0.01 -0.02,-0.02 -0.02,-0.02 -0.05,-0.05 -0.07,-0.07 -2.71,-2.66 -5.82,-4.99 -9.3,-6.91 l -109.72,-60.4 -54.92,-30.23 -36.21,-19.93 c -6.53,-3.6 -13.61,-5.3 -20.6,-5.3"
         style="fill:#daf3fc;fill-opacity:1;fill-rule:nonzero;stroke:none"
         id="path90" /><path
         d="m 1152.16,2009.82 c 3.05,3.33 6.69,6.22 10.85,8.51 l 139.45,76.77 c -0.94,-21.59 -15.05,-41.33 -36.82,-48.41 l -113.48,-36.87"
         style="fill:#e3f6fd;fill-opacity:1;fill-rule:nonzero;stroke:none"
         id="path92" /><path
         d="m 1554.71,1285.74 c -91.42,0 -180.05,48.47 -227.25,134.22 -33.33,60.55 -39.91,128.61 -23.67,190.58 7.74,-4.1 16.36,-6.22 25.05,-6.22 10.87,0 21.84,3.31 31.31,10.19 l 105.41,76.59 c 23.83,17.31 29.11,50.66 11.8,74.49 -10.44,14.37 -26.7,21.99 -43.2,21.99 -10.86,0 -21.84,-3.31 -31.3,-10.19 l -42.88,-31.15 -79.53,144.46 128.2,71.15 90.16,-163.78 c 18.38,4.06 36.98,6.04 55.45,6.04 91.42,0 180.03,-48.46 227.24,-134.2 63.28,-114.95 30.14,-256.98 -72.43,-333 l 56.5,77.77 c 17.32,23.83 12.03,57.18 -11.8,74.49 v 0 c -9.46,6.88 -20.43,10.19 -31.3,10.19 -16.49,0 -32.76,-7.62 -43.19,-21.99 l -76.59,-105.41 c -17.31,-23.83 -12.03,-57.18 11.8,-74.49 1.71,-1.25 3.47,-2.37 5.28,-3.39 -21.5,-5.61 -43.36,-8.34 -65.06,-8.34 M 1256,1959 l 44.83,24.68 73.52,40.48 L 1256,1959"
         style="fill:#daf3fc;fill-opacity:1;fill-rule:nonzero;stroke:none"
         id="path94" /><path
         d="m 1328.84,1604.32 c -8.69,0 -17.31,2.12 -25.05,6.22 11.4,43.51 34.05,84.03 66.57,116.83 l -10.38,18.87 42.88,31.15 c 9.46,6.88 20.44,10.19 31.3,10.19 16.5,0 32.76,-7.62 43.2,-21.99 17.31,-23.83 12.03,-57.18 -11.8,-74.49 l -105.41,-76.59 c -9.47,-6.88 -20.44,-10.19 -31.31,-10.19"
         style="fill:#e3f6fd;fill-opacity:1;fill-rule:nonzero;stroke:none"
         id="path96" /><path
         d="m 1619.77,1294.08 c -1.81,1.02 -3.57,2.14 -5.28,3.39 -23.83,17.31 -29.11,50.66 -11.8,74.49 l 76.59,105.41 c 10.43,14.37 26.7,21.99 43.19,21.99 10.87,0 21.84,-3.31 31.3,-10.19 v 0 c 23.83,-17.31 29.12,-50.66 11.8,-74.49 l -56.5,-77.77 c -9.31,-6.9 -19.19,-13.25 -29.62,-19 -19.27,-10.61 -39.32,-18.51 -59.68,-23.83"
         style="fill:#e3f6fd;fill-opacity:1;fill-rule:nonzero;stroke:none"
         id="path98" /><path
         d="m 1245.91,1953.45 v 0 l 54.92,30.23 -44.83,-24.68 -10.09,-5.55"
         style="fill:#f7fcff;fill-opacity:1;fill-rule:nonzero;stroke:none"
         id="path100" /><path
         d="m 1354.96,1547.31 c -1.57,-21.39 2.84,-48.58 15.69,-83.64 44.63,-101.24 162.86,-147.13 264.1,-102.51 75.85,33.43 120.63,108.18 119.55,186.15 h -399.34"
         style="fill:#87cd26;fill-opacity:1;fill-rule:evenodd;stroke:none"
         id="path102" /><path
         d="m 1868.38,3720.91 c 68.21,-92.65 48.4,-223.05 -44.24,-291.25 -92.65,-68.21 -223.05,-48.4 -291.25,44.25 -68.21,92.64 -48.39,223.04 44.25,291.24 92.64,68.21 223.04,48.4 291.24,-44.24"
         style="fill:#3a3a3b;fill-opacity:1;fill-rule:evenodd;stroke:none"
         id="path104" /><path
         d="m 1822.61,3687.21 c 49.59,-67.37 35.19,-162.19 -32.17,-211.78 -67.37,-49.59 -162.19,-35.19 -211.78,32.18 -49.59,67.36 -35.19,162.18 32.17,211.77 67.37,49.6 162.19,35.19 211.78,-32.17"
         style="fill:#ffffff;fill-opacity:1;fill-rule:evenodd;stroke:none"
         id="path106" /><path
         d="m 2623.8,2488.96 c 72.4,12.77 112.57,51.28 120.29,155.69 1.15,15.7 2.27,83.24 -20.41,88.61 -10.82,2.56 -25.89,-13.75 -31.56,-20.89 -21.07,-26.55 -34.8,-65.53 -43.16,-97.94 -10.45,-40.58 -18.51,-82.91 -25.16,-125.47 z m -271.19,-0.22 c -6.65,42.63 -14.72,85.04 -25.19,125.69 -8.36,32.41 -22.09,71.39 -43.17,97.94 -5.66,7.14 -20.73,23.45 -31.56,20.89 -22.68,-5.37 -21.55,-72.91 -20.4,-88.61 7.77,-105.19 48.8,-143.4 120.32,-155.91 z m 5.75,-39.11 c -96.74,13.61 -154.57,61.18 -164.24,192.19 -2.96,40.02 -0.52,116.8 49.77,128.69 66.96,15.83 108.63,-100.1 120.59,-146.53 11.64,-45.14 20.38,-92.32 27.52,-139.61 16.58,-0.99 34.39,-1.22 53.4,-1.03 l 93.69,-0.05 c 16.02,-0.02 31.14,0.32 45.3,1.22 7.14,47.24 15.88,94.37 27.51,139.47 11.96,46.43 53.63,162.37 120.58,146.53 50.29,-11.89 52.74,-88.67 49.77,-128.69 -9.58,-129.84 -66.36,-178.16 -164.21,-192.09 -3.75,-27.15 -7.06,-54.21 -10.17,-80.77 -12.06,-102.94 -20.71,-206.43 -28.83,-309.75 -9.46,-120.41 -17.69,-240.99 -28.55,-361.28 -0.95,-10.49 -10.28,-18.29 -20.78,-17.34 -10.5,0.95 -18.29,10.28 -17.34,20.78 l 0.06,0.77 c 10.81,119.88 19.03,240.07 28.45,360.06 8.15,103.81 16.86,207.79 28.97,311.2 2.81,23.93 5.76,48.21 9.05,72.61 -12.72,-0.7 -26,-1.02 -39.84,-1 l -93.48,0.05 c -16.78,-0.17 -32.83,0.08 -48.1,0.91 3.29,-24.39 6.25,-48.67 9.04,-72.57 12.12,-103.41 20.83,-207.39 28.97,-311.2 9.26,-117.85 17.35,-235.89 27.87,-353.65 l 0.65,-7.18 c 0.95,-10.5 -6.85,-19.83 -17.34,-20.78 -10.5,-0.95 -19.83,6.85 -20.78,17.34 -10.86,120.29 -19.09,240.87 -28.55,361.28 -8.12,103.32 -16.78,206.81 -28.83,309.75 -3.12,26.52 -6.41,53.55 -10.15,80.67"
         style="fill:#f25127;fill-opacity:1;fill-rule:evenodd;stroke:none"
         id="path108" /><path
         d="m 2638.88,1073.37 c -7.34,-76.55 -72.3,-136.909 -150.69,-136.909 h -0.01 c -78.39,0 -143.35,60.359 -150.69,136.909 46.71,-18.56 97.56,-28.79 150.69,-28.79 h 0.01 c 53.13,0 103.97,10.23 150.69,28.79"
         style="fill:#333e58;fill-opacity:1;fill-rule:evenodd;stroke:none"
         id="path110" /><path
         d="m 2899.09,1820.4 v -364.92 c 0,-225.99 -184.91,-410.9 -410.9,-410.9 h -0.01 c -225.99,0 -410.9,184.9 -410.9,410.9 v 364.93 c 122.84,-64.35 262.62,-100.83 410.91,-100.83 148.29,0 288.06,36.47 410.9,100.82"
         style="fill:#fbfbc1;fill-opacity:1;fill-rule:evenodd;stroke:none"
         id="path112" /><path
         d="m 2889.7,1368.35 c -4.33,-19.85 -10.11,-39.17 -17.22,-57.86 -255.88,-109.47 -512.6,-109.07 -768.65,0.15 -7.1,18.68 -12.87,37.96 -17.19,57.79 6.46,-3.02 12.92,-5.96 19.38,-8.83 255.17,-113.49 509.52,-113.88 764.53,-0.01 6.38,2.85 12.76,5.78 19.15,8.76 z m 9.39,159.33 v -50.53 c -273.54,-125.18 -548.1,-124.72 -821.81,0.09 v 50.51 c 9.59,-4.57 19.17,-8.98 28.74,-13.26 255.17,-113.5 509.52,-113.88 764.53,-0.02 9.5,4.26 19.01,8.65 28.54,13.21 z m -821.81,172.15 c 9.59,-4.57 19.17,-8.99 28.74,-13.24 255.17,-113.5 509.52,-113.87 764.53,-0.02 9.5,4.26 19.01,8.64 28.54,13.21 v -50.52 c -273.54,-125.19 -548.1,-124.74 -821.81,0.09 v 50.48"
         style="fill:#333e58;fill-opacity:1;fill-rule:evenodd;stroke:none"
         id="path114" /><path
         d="m 3910.66,1803.8 -223.36,-423.63 -151.22,79.73 223.37,423.63 c 1.93,-3.2 4.72,-5.94 8.26,-7.81 l 131.85,-69.52 c 3.53,-1.86 7.37,-2.62 11.1,-2.4"
         style="fill:#fdd405;fill-opacity:1;fill-rule:evenodd;stroke:none"
         id="path116" /><path
         d="m 3938.16,2122.15 68.44,-36.09 c 22.79,-12.02 31.57,-40.43 19.56,-63.21 l -32.23,-61.13 c -1.93,3.2 -4.73,5.94 -8.26,7.8 l -131.85,69.52 c -3.54,1.86 -7.37,2.63 -11.1,2.41 l 32.23,61.13 c 12.02,22.79 40.42,31.58 63.21,19.57"
         style="fill:#f0383c;fill-opacity:1;fill-rule:evenodd;stroke:none"
         id="path118" /><path
         d="m 3853.82,2039.04 131.85,-69.52 c 10.34,-5.45 14.32,-18.31 8.87,-28.64 l -66.34,-125.81 c -5.45,-10.34 -18.3,-14.32 -28.64,-8.87 l -131.85,69.52 c -10.34,5.46 -14.32,18.31 -8.87,28.65 l 66.34,125.8 c 5.45,10.34 18.3,14.32 28.64,8.87"
         style="fill:#ffffff;fill-opacity:1;fill-rule:evenodd;stroke:none"
         id="path120" /><path
         d="m 3764.71,1915.49 6.29,11.93 98.53,-51.95 c 3.37,-1.78 5.39,-5.9 3.51,-9.47 -1.89,-3.58 -6.42,-4.24 -9.8,-2.46 z m 196.68,-37.48 -6.29,-11.92 -169.36,89.3 6.29,11.92 z m -148.04,129.75 169.37,-89.3 -6.29,-11.93 -169.36,89.3 6.28,11.93"
         style="fill:#c3c2c0;fill-opacity:1;fill-rule:evenodd;stroke:none"
         id="path122" /><path
         d="m 2096.86,4507.96 402.42,-304.77 75,241.33 -188.78,40.33 -288.64,23.11"
         style="fill:#decfeb;fill-opacity:1;fill-rule:evenodd;stroke:none"
         id="path124" /><path
         d="m 2096.86,4507.96 561.08,47.76 -83.66,-111.2 z"
         style="fill:#ffffff;fill-opacity:1;fill-rule:evenodd;stroke:none"
         id="path126" /><path
         d="m 2096.84,4507.96 h 0.02 l 472.69,-88.53 42.17,-191.99 -514.88,280.52"
         style="fill:#ffffff;fill-opacity:1;fill-rule:evenodd;stroke:none"
         id="path128" /><path
         d="m 3628.45,3599.36 c -62.54,125.95 -300.31,78.99 -621.06,-96.48 -11.75,-6.43 -13.13,-22.67 -2.84,-31.26 l 0.31,-0.26 c 5.92,-4.93 14.3,-5.63 21.06,-1.94 23.25,12.68 46.52,25.06 69.81,36.86 96.67,48.95 212.29,100.06 319.5,119.16 47.83,8.52 125.58,15.66 163.92,-22.18 6.19,-6.11 11.13,-13.15 14.99,-20.94 66.61,-134.13 -150.53,-461.74 -222.91,-564.59 -226.08,-321.19 -525.39,-626.5 -820.32,-884.61 -10.11,-8.85 -20.3,-17.71 -30.55,-26.58 13.78,-4.97 27.6,-9.88 41.43,-14.72 l 14.35,12.48 c 690.92,604.65 1162.07,1274.03 1052.31,1495.06"
         style="fill:#ffffff;fill-opacity:1;fill-rule:evenodd;stroke:none"
         id="path130" /><path
         d="m 2487.54,2078.31 c -171.71,-146.7 -360.99,-293.63 -556.44,-418.93 l -4.21,-2.69 -4.21,-2.68 -1.14,-0.74 -3.07,-1.94 -4.22,-2.67 -3.76,-2.4 -0.45,-0.27 -4.21,-2.66 -4.23,-2.65 -2.18,-1.38 -2.03,-1.26 -4.22,-2.64 -4.23,-2.64 -0.6,-0.37 -3.62,-2.25 -4.23,-2.61 -3.24,-2.01 -0.99,-0.59 -4.23,-2.61 -4.23,-2.6 -1.65,-1 -2.59,-1.58 -4.23,-2.57 -4.24,-2.57 -0.06,-0.04 -11.11,-6.71 -1.54,-0.92 -4.25,-2.55 -4.24,-2.52 -1.1,-0.67 -3.14,-1.86 -4.25,-2.51 -3.75,-2.22 -0.49,-0.3 -4.26,-2.5 -4.24,-2.48 -2.16,-1.27 c -50.29,-29.39 -100.83,-57.08 -151.43,-82.71 -93.6,-47.5 -204.65,-96.93 -308.96,-117.18 l -0.17,-0.04 -0.16,-0.03 -0.12,-0.02 -0.05,-0.01 -0.15,-0.04 -0.17,-0.02 -0.16,-0.04 -0.17,-0.03 -0.16,-0.03 -0.17,-0.04 -0.16,-0.03 -0.17,-0.03 -0.16,-0.03 -0.16,-0.03 -0.17,-0.03 -0.16,-0.04 -0.17,-0.03 -0.33,-0.06 -0.16,-0.03 -0.17,-0.04 -0.16,-0.03 -0.17,-0.03 -0.17,-0.03 -0.16,-0.03 -0.17,-0.03 -0.15,-0.04 -0.17,-0.02 -0.16,-0.04 -0.17,-0.03 -0.16,-0.03 -0.17,-0.03 -0.17,-0.03 -0.16,-0.03 -0.07,-0.02 -0.1,-0.02 -0.15,-0.02 -0.17,-0.03 -0.16,-0.04 -0.17,-0.02 -0.16,-0.04 -0.17,-0.03 -0.16,-0.02 -0.17,-0.04 -0.17,-0.03 -0.16,-0.03 -0.17,-0.03 -0.16,-0.03 -0.17,-0.04 -0.15,-0.01 -0.17,-0.04 -0.16,-0.02 -0.17,-0.04 -0.17,-0.03 -0.16,-0.02 -0.17,-0.04 -0.16,-0.03 -0.17,-0.02 -0.15,-0.04 -0.17,-0.02 -0.16,-0.03 -0.17,-0.04 -0.16,-0.02 -0.17,-0.03 -0.16,-0.03 -0.17,-0.03 -1.54,-0.27 -0.72,-0.13 -0.83,-0.15 -1.48,-0.24 -0.09,-0.01 -1.59,-0.28 -0.66,-0.11 -0.95,-0.15 -1.44,-0.23 -0.19,-0.04 -1.64,-0.25 -0.59,-0.1 -1.07,-0.16 -1.39,-0.21 -0.29,-0.03 -1.69,-0.25 -0.51,-0.08 -1.2,-0.17 -1.34,-0.19 -0.38,-0.05 -1.74,-0.24 -0.43,-0.05 -1.33,-0.17 -1.25,-0.17 -0.51,-0.06 -1.78,-0.22 -0.33,-0.04 -1.46,-0.17 -1.18,-0.15 -0.61,-0.06 -1.82,-0.2 -0.24,-0.03 -1.58,-0.16 -1.1,-0.12 -0.74,-0.07 -1.84,-0.18 -0.14,-0.02 -1.72,-0.15 -1,-0.09 -0.85,-0.07 -1.88,-0.16 -0.02,-0.01 -1.86,-0.14 -0.91,-0.06 -0.96,-0.07 -1.83,-0.13 h -0.07 l -1.89,-0.12 -0.83,-0.05 -1.08,-0.05 -1.73,-0.09 -0.18,-0.02 -1.92,-0.08 -0.71,-0.03 -1.2,-0.04 -1.63,-0.06 -0.29,-0.01 -1.93,-0.05 -0.61,-0.02 -1.32,-0.02 -5.79,-0.05 h -1.43 l -0.51,0.02 -1.93,0.02 h -0.4 l -1.54,0.03 -3.68,0.11 h -0.18 l -0.29,0.01 -1.65,0.07 -1.19,0.06 -0.73,0.04 -1.94,0.12 h -0.17 l -1.75,0.12 -1.07,0.07 -0.84,0.07 -1.92,0.16 h -0.06 l -1.86,0.18 -0.96,0.09 -0.94,0.1 -1.85,0.19 -0.04,0.01 -1.9,0.23 -0.84,0.1 -1.04,0.15 -1.74,0.24 -0.14,0.02 -1.88,0.28 c -4.35,0.68 -8.65,1.51 -12.85,2.51 -18.1,4.32 -34.43,11.82 -46.72,23.95 -6.18,6.11 -11.13,13.15 -14.99,20.94 -35.1,70.68 8.6,195.07 68.38,312 3.84,7.51 2.45,16.66 -3.63,22.51 l -0.29,0.28 c -9.38,9.03 -24.77,6.45 -30.67,-5.16 -77.26,-152.05 -104.3,-273.76 -68.09,-346.67 35.04,-70.58 125.11,-86.88 253.97,-56.7 l -0.04,0.03 c 116.66,27.3 265.11,92.68 433.35,190.47 l 0.27,0.16 7.1,4.15 2.7,1.57 7.29,4.29 13.02,7.71 1.03,0.61 9.18,5.5 4.95,2.98 0.76,0.46 13.46,8.15 1.41,0.87 10.35,6.33 2.53,1.56 0.91,0.57 c 13.86,8.55 27.84,17.29 41.93,26.23 l 0.56,0.35 c 185.15,117.58 389.05,269.29 597.85,448.5 -13.74,4.86 -27.55,9.84 -41.41,14.87"
         style="fill:#ffffff;fill-opacity:1;fill-rule:evenodd;stroke:none"
         id="path132" /><path
         d="m 1591.76,2317.58 c -61.15,-70.85 -117.61,-140.29 -168.54,-207.39 l 4.27,-7.76 c 11.37,-20.7 3.75,-46.96 -16.94,-58.35 l -36.2,-19.93 14.21,-25.81 c 70.91,100.19 148.93,198.81 231.65,294.92 8.15,9.46 4.9,24.04 -6.54,29.04 l -0.36,0.15 c -7.45,3.26 -16.24,1.28 -21.55,-4.87"
         style="fill:#ffffff;fill-opacity:1;fill-rule:evenodd;stroke:none"
         id="path134" /><path
         d="m 3718.5,3776.32 c 100.09,0 181.24,-81.15 181.24,-181.24 0,-100.09 -81.15,-181.23 -181.24,-181.23 -100.09,0 -181.23,81.14 -181.23,181.23 0,100.09 81.14,181.24 181.23,181.24 z m 197.78,83.64 67.12,-67.11 44.85,22.85 c 10.89,5.54 24.12,1.87 30.61,-8.5 23.37,-37.41 40.4,-78.44 50.34,-121.42 2.78,-11.93 -4.01,-23.92 -15.68,-27.69 l -47.87,-15.56 v -94.9 l 47.87,-15.56 c 11.67,-3.77 18.46,-15.75 15.68,-27.69 -9.94,-42.97 -26.97,-84.02 -50.34,-121.42 -6.48,-10.37 -19.69,-14.04 -30.59,-8.52 l -44.87,22.87 -67.12,-67.11 22.85,-44.84 c 5.56,-10.91 1.88,-24.15 -8.5,-30.63 -37.41,-23.37 -78.46,-40.4 -121.43,-50.35 -11.92,-2.76 -23.89,4 -27.68,15.64 l -15.57,47.91 h -94.9 l -15.57,-47.91 c -3.79,-11.65 -15.76,-18.4 -27.69,-15.64 -42.96,9.95 -84,26.97 -121.41,50.35 -10.36,6.48 -14.04,19.71 -8.5,30.61 l 22.85,44.86 -67.1,67.11 -44.85,-22.85 c -10.91,-5.56 -24.15,-1.89 -30.63,8.49 -23.38,37.41 -40.4,78.44 -50.35,121.42 -2.76,11.93 3.99,23.9 15.64,27.69 l 47.91,15.57 v 94.9 l -47.91,15.57 c -11.65,3.79 -18.4,15.76 -15.64,27.69 9.95,42.98 26.97,84 50.35,121.42 6.48,10.38 19.74,14.06 30.66,8.48 l 44.81,-22.83 67.11,67.1 -22.85,44.88 c -5.54,10.9 -1.86,24.12 8.5,30.61 37.41,23.36 78.45,40.4 121.42,50.35 11.95,2.76 23.93,-4.04 27.7,-15.71 l 15.55,-47.86 h 94.9 l 15.56,47.87 c 3.77,11.66 15.76,18.46 27.69,15.68 42.97,-9.94 84.02,-26.97 121.43,-50.34 10.38,-6.49 14.06,-19.73 8.5,-30.64 l -22.85,-44.84"
         style="fill:#ff8a00;fill-opacity:0.78456992;fill-rule:evenodd;stroke:none"
         id="path136" /><path
         d="m 3476.38,2246.14 -0.26,-0.29 c -6.91,-7.66 -6.42,-19.48 1.04,-26.6 76.86,-73.43 158.88,-170.45 136.37,-232.99 -2.19,-6.08 -5.4,-11.59 -9.44,-16.62 -75.03,-93.44 -396.05,-44.41 -494.97,-26.42 -319.12,58.04 -651.84,176.53 -947.58,308.06 -265.35,118.02 -553.09,269.12 -781.65,449.68 -61.2,48.34 -273.21,225.73 -238.64,321.79 2.2,6.09 5.41,11.6 9.45,16.63 63.88,79.56 305.93,55.85 437.53,35.94 9.97,-1.51 19.31,5.08 21.28,14.97 l 0.08,0.38 c 2.12,10.66 -5.08,21.02 -15.82,22.69 -239.21,37.24 -413.78,23.68 -472.93,-50 -127.817,-159.19 331.16,-538.44 1025.13,-847.08 693.98,-308.64 1360.17,-429.81 1487.99,-270.62 54.59,67.99 2.11,176.13 -129.99,301.76 -7.86,7.47 -20.33,6.77 -27.59,-1.28"
         style="fill:#ffffff;fill-opacity:1;fill-rule:evenodd;stroke:none"
         id="path138" /><g
         id="g140"><g
           id="g142"
           clip-path="url(#clipPath146-3)"><path
             d="m 1245.91,1890.7 h 162.738 v 133.461 H 1245.91 Z"
             style="fill:#b5d8de;fill-opacity:1;fill-rule:nonzero;stroke:none"
             id="path148" /></g></g><path
         d="m 1280.45,1890.7 -34.54,62.75 10.09,5.55 118.35,65.15 34.3,-62.3 -128.2,-71.15"
         style="fill:#d5dedf;fill-opacity:1;fill-rule:nonzero;stroke:none"
         id="path150" /><path
         d="m 1245.91,1953.45 v 0 l 10.09,5.55 -10.09,-5.55"
         style="fill:#dddfde;fill-opacity:1;fill-rule:nonzero;stroke:none"
         id="path152" /><path
         d="m 523.32,1932.66 v 0 c -26.738,17.54 -34.195,53.44 -16.656,80.18 l 208.012,317.09 96.832,-63.52 -208.012,-317.09 c -17.539,-26.74 -53.433,-34.2 -80.176,-16.66"
         style="fill:#333e58;fill-opacity:1;fill-rule:evenodd;stroke:none"
         id="path154" /><path
         d="m 811.508,2266.41 -96.832,63.52 62.176,94.78 c 17.543,26.74 53.437,34.2 80.175,16.66 26.743,-17.54 34.2,-53.44 16.657,-80.18 l -62.176,-94.78"
         style="fill:#ffffff;fill-opacity:1;fill-rule:evenodd;stroke:none"
         id="path156" /><path
         d="m 1344.36,2809.37 c 52.89,0 95.78,-42.88 95.78,-95.77 0,-52.9 -42.89,-95.78 -95.78,-95.78 -52.9,0 -95.78,42.88 -95.78,95.78 0,52.89 42.88,95.77 95.78,95.77"
         style="fill:#f0383c;fill-opacity:1;fill-rule:evenodd;stroke:none"
         id="path158" /><path
         d="m 3273.53,1995.32 c 52.89,0 95.77,-42.89 95.77,-95.78 0,-52.9 -42.88,-95.78 -95.77,-95.78 -52.9,0 -95.78,42.88 -95.78,95.78 0,52.89 42.88,95.78 95.78,95.78"
         style="fill:#35abe6;fill-opacity:1;fill-rule:evenodd;stroke:none"
         id="path160" /><path
         d="m 3687.29,1380.17 223.37,423.63 c -3.73,-0.22 -7.57,0.54 -11.1,2.4 l -56.88,30 -228.1,-417.69 72.71,-38.34"
         style="fill:#fac208;fill-opacity:1;fill-rule:evenodd;stroke:none"
         id="path162" /><path
         d="m 3500,1235.83 30.97,212.7 c 0.66,4.52 3.25,8.13 7.33,10.2 4.08,2.08 8.51,2.05 12.56,-0.09 l 127.04,-66.99 c 4.06,-2.13 6.59,-5.77 7.18,-10.31 0.59,-4.54 -0.92,-8.71 -4.28,-11.81 l -158.02,-145.72 c -4.33,-3.99 -10.42,-4.78 -15.63,-2.04 -5.21,2.75 -7.99,8.23 -7.15,14.06"
         style="fill:#eaa211;fill-opacity:1;fill-rule:evenodd;stroke:none"
         id="path164" /><path
         d="m 3500,1235.83 8.38,57.56 57.17,-30.14 -42.77,-39.44 c -4.33,-3.99 -10.42,-4.78 -15.63,-2.04 -5.21,2.75 -7.99,8.23 -7.15,14.06"
         style="fill:#333e58;fill-opacity:1;fill-rule:evenodd;stroke:none"
         id="path166" /><path
         d="m 1442.35,1505.7 c 0,-6.21 -5.04,-11.25 -11.25,-11.25 -6.21,0 -11.25,5.04 -11.25,11.25 0,6.21 5.04,11.25 11.25,11.25 6.21,0 11.25,-5.04 11.25,-11.25"
         style="fill:#00a764;fill-opacity:1;fill-rule:evenodd;stroke:none"
         id="path168" /><path
         d="m 1542.35,1501.33 c 0,-8.63 -7,-15.63 -15.62,-15.63 -8.63,0 -15.63,7 -15.63,15.63 0,8.62 7,15.62 15.63,15.62 8.62,0 15.62,-7 15.62,-15.62"
         style="fill:#00a764;fill-opacity:1;fill-rule:evenodd;stroke:none"
         id="path170" /><path
         d="m 1582.35,1376.95 c 0,-4.14 -3.36,-7.5 -7.5,-7.5 -4.14,0 -7.5,3.36 -7.5,7.5 0,4.14 3.36,7.5 7.5,7.5 4.14,0 7.5,-3.36 7.5,-7.5"
         style="fill:#00a764;fill-opacity:1;fill-rule:evenodd;stroke:none"
         id="path172" /><path
         d="m 1669.85,1425.08 c 0,-7.94 -6.44,-14.38 -14.37,-14.38 -7.94,0 -14.38,6.44 -14.38,14.38 0,7.93 6.44,14.37 14.38,14.37 7.93,0 14.37,-6.44 14.37,-14.37"
         style="fill:#00a764;fill-opacity:1;fill-rule:evenodd;stroke:none"
         id="path174" /><path
         d="m 842.262,2533.21 v 102.5 c 0,13.81 -11.196,25 -25,25 -13.809,0 -25,-11.19 -25,-25 v -102.5 c 0,-13.81 11.191,-25 25,-25 13.804,0 25,11.19 25,25"
         style="fill:#fdd405;fill-opacity:1;fill-rule:nonzero;stroke:none"
         id="path176" /><path
         d="m 932.949,2508.47 55.457,73.43 c 8.324,11.02 6.137,26.7 -4.883,35.02 -11.015,8.32 -26.695,6.13 -35.015,-4.89 l -55.457,-73.43 c -8.321,-11.02 -6.137,-26.7 4.883,-35.02 11.019,-8.32 26.695,-6.13 35.015,4.89"
         style="fill:#fdd405;fill-opacity:1;fill-rule:nonzero;stroke:none"
         id="path178" /><path
         d="m 949.301,2412.5 81.529,29.76 c 12.97,4.73 19.65,19.09 14.91,32.06 -4.73,12.97 -19.08,19.64 -32.05,14.91 l -81.534,-29.76 c -12.968,-4.74 -19.644,-19.09 -14.91,-32.06 4.734,-12.97 19.086,-19.65 32.055,-14.91"
         style="fill:#fdd405;fill-opacity:1;fill-rule:nonzero;stroke:none"
         id="path180" /><path
         d="m 1319.07,3949.83 c 0,-20.21 -16.38,-36.58 -36.58,-36.58 -20.21,0 -36.58,16.37 -36.58,36.58 0,20.2 16.37,36.58 36.58,36.58 20.2,0 36.58,-16.38 36.58,-36.58"
         style="fill:#ffffff;fill-opacity:1;fill-rule:evenodd;stroke:none"
         id="path182" /><path
         d="m 3568.31,970.691 c 0,-18.902 -15.33,-34.23 -34.23,-34.23 -18.9,0 -34.23,15.328 -34.23,34.23 0,18.899 15.33,34.229 34.23,34.229 18.9,0 34.23,-15.33 34.23,-34.229"
         style="fill:#ffffff;fill-opacity:1;fill-rule:evenodd;stroke:none"
         id="path184" /><path
         d="m 1158.18,1102.72 c 0,-16.21 -13.14,-29.35 -29.35,-29.35 -16.21,0 -29.35,13.14 -29.35,29.35 0,16.21 13.14,29.35 29.35,29.35 16.21,0 29.35,-13.14 29.35,-29.35"
         style="fill:#ffffff;fill-opacity:1;fill-rule:evenodd;stroke:none"
         id="path186" /><path
         d="m 4257.17,3878.96 c 0,-18.94 -15.35,-34.29 -34.28,-34.29 -18.94,0 -34.29,15.35 -34.29,34.29 0,18.93 15.35,34.29 34.29,34.29 18.93,0 34.28,-15.36 34.28,-34.29"
         style="fill:#ffffff;fill-opacity:1;fill-rule:evenodd;stroke:none"
         id="path188" /></g></g></svg>
